<svg width="3515" height="3707" viewBox="0 0 3515 3707" fill="none" xmlns="http://www.w3.org/2000/svg">
<path d="M1544.75 0C2632.39 0 3514.1 829.773 3514.1 1853.35C3514.1 2876.92 2632.39 3706.7 1544.75 3706.7C918.601 3706.7 360.711 3431.7 0 3003.03C300.878 3252.09 694.709 3403 1125.77 3403C2070.79 3403 2836.87 2677.72 2836.87 1783.04C2836.87 888.366 2070.79 163.089 1125.77 163.089C917.421 163.089 717.768 198.343 533.104 262.896C828.78 95.9704 1174.85 7.39824e-05 1544.75 0Z" fill="#FFD400"/>
<path d="M646.502 540.461L616.684 605.54L551.842 635.121L616.684 664.939L646.502 729.781L676.084 664.939L741.163 635.121L676.084 605.54M409.852 611.456L350.689 741.614L220.531 800.777L350.689 859.939L409.852 990.097L469.014 859.939L599.172 800.777L469.014 741.614M646.502 871.772L616.684 936.614L551.842 966.432L616.684 996.013L646.502 1061.09L676.084 996.013L741.163 966.432L676.084 936.614" fill="#FFD400"/>
<path fill-rule="evenodd" clip-rule="evenodd" d="M1485.33 543.114C1478.62 549.832 1481.29 555.177 1502.88 578.161C1514.59 590.627 1523.42 601.578 1522.5 602.494C1521.58 603.41 1504.8 600.071 1485.19 595.075C1447.42 585.45 1444.96 585.776 1441.22 600.939C1438.49 612.021 1443.88 614.986 1474.51 619.23C1503.55 623.255 1515.75 630.161 1529.28 650.242C1542.89 670.446 1539.17 674.488 1517.2 663.357C1483.48 646.269 1468.65 659.799 1500.13 678.926C1510.52 685.235 1521.85 693.579 1525.3 697.472C1538.67 712.515 1562.82 729.088 1579.1 734.374C1605.72 743.025 1610.61 749.169 1610.61 773.966C1610.61 785.435 1606.99 834.894 1602.56 883.875C1598.14 932.856 1593.29 993.977 1591.8 1019.7C1589.08 1066.42 1589.06 1066.51 1572.16 1106.28C1562.85 1128.18 1545.04 1174.63 1532.57 1209.5C1520.1 1244.37 1506.26 1280.15 1501.82 1289.02C1492.99 1306.66 1446.9 1353.46 1428.7 1363.26C1418.35 1368.83 1417.2 1368.86 1409.45 1363.78C1399.17 1357.05 1393.14 1336.17 1395.82 1316.62C1396.96 1308.3 1403.28 1293.12 1410.79 1280.71C1422.73 1260.94 1424.83 1259.06 1436.68 1257.47C1464.88 1253.68 1478.34 1235.89 1478.35 1202.36C1478.37 1182.58 1479.36 1179.08 1487.62 1169.67C1498.81 1156.92 1502.59 1136.56 1497.76 1115.01C1492.9 1093.37 1486.72 1082.82 1471.92 1070.92C1464.83 1065.22 1454.75 1052.99 1449.53 1043.73C1435.93 1019.64 1419.1 1011.86 1385.4 1014.09C1355.38 1016.08 1320.9 1026.6 1307.54 1037.83C1302.12 1042.39 1292.49 1055.05 1286.13 1065.97C1272.93 1088.63 1263 1100.34 1256.98 1100.34C1250.43 1100.34 1246.14 1111.43 1246.14 1128.34C1246.14 1136.89 1243.18 1151.64 1239.57 1161.14C1230.98 1183.75 1230.33 1200.48 1237.88 1204.97C1256.92 1216.29 1269.34 1227.61 1275.08 1238.86C1288.39 1264.96 1279.89 1330.62 1260.88 1348.48L1252.91 1355.96L1240.13 1328.29C1233.1 1313.08 1219.78 1289.79 1210.53 1276.54L1193.72 1252.45L1177.86 1175.59C1149.94 1040.27 1151.9 1056.76 1158.87 1015.67C1162.26 995.713 1166.64 953.982 1168.61 922.938C1172.25 865.393 1182.44 784.377 1188.35 765.983C1192.17 754.055 1194.64 752.868 1224.22 748.672C1240.32 746.389 1256.81 740.528 1283.43 727.636C1321.86 709.019 1327.32 703 1311.45 696.704C1304.37 693.892 1298.85 694.46 1284.04 699.533L1265.49 705.884V696.795C1265.49 682.229 1281.92 666.411 1305.15 658.619C1330.66 650.059 1334.13 647.749 1332.62 640.328C1331.56 635.096 1328.86 634.399 1312.96 635.251C1302.82 635.796 1294.52 635.377 1294.52 634.315C1294.52 633.257 1300.33 626.871 1307.42 620.12C1314.52 613.37 1320.32 606.125 1320.32 604.019C1320.32 595.649 1309.63 596.846 1293.58 607.016C1284.34 612.866 1258.17 628.49 1235.42 641.734C1170.71 679.407 1147.59 704.091 1139.67 743.928C1137.56 754.571 1126.51 795.628 1115.13 835.165C1089.22 925.17 1075.19 987.436 1075.19 1012.48C1075.19 1035.5 1091.96 1181.84 1101.16 1239.03C1108.74 1286.19 1115.92 1317.57 1131.56 1371.9C1148.07 1429.24 1147.44 1438.44 1123.85 1484.69C1100.15 1531.19 1097.43 1547 1106.63 1585.06C1122.77 1651.77 1147.94 1733.47 1170.43 1792.08C1190.45 1844.3 1194.18 1856.75 1190.71 1859.92C1188.38 1862.05 1170.5 1871.18 1150.99 1880.19C1107.31 1900.37 1016.22 1943.23 921.285 1988.25C881.874 2006.95 837.344 2029.66 822.326 2038.73C807.312 2047.8 784.402 2060.08 771.42 2066.02C736.218 2082.12 728.335 2093.82 741.856 2109.89C748.223 2117.45 749.642 2121.77 747.978 2128.52C741.136 2156.23 742.62 2160.92 759.312 2164.33C767.923 2166.09 770.559 2168.57 772.723 2176.91C775.168 2186.35 776.548 2187.3 787.863 2187.3C799.539 2187.3 800.445 2188 802.432 2198.58C804.358 2208.85 805.451 2209.79 814.598 2209.06C823.475 2208.36 824.981 2209.49 827.445 2218.73C828.977 2224.48 835.325 2234.28 841.543 2240.5C858.183 2257.14 871.853 2256.32 896.446 2237.22C912.486 2224.77 938.789 2213.09 950.794 2213.1C952.688 2213.1 963.441 2217.46 974.688 2222.78C1002.62 2235.99 1007.93 2235.39 1027.81 2216.77C1054.71 2191.57 1062.77 2189.43 1094.76 2198.98C1118.55 2206.08 1142.3 2205.43 1160.97 2197.17C1169.42 2193.44 1177.42 2191.5 1178.76 2192.87C1180.1 2194.24 1185.03 2215.68 1189.71 2240.52C1203.29 2312.52 1218.82 2370.22 1247.87 2456.62C1282.36 2559.18 1284.74 2569.69 1284.79 2620.09C1284.84 2658.99 1284.23 2662.85 1272.3 2699.11C1251.81 2761.38 1245.81 2799.21 1239.66 2904.95C1233.1 3017.61 1229.54 3040.26 1213.43 3071.84C1201.38 3095.46 1187.21 3140.77 1184.43 3164.6C1169.49 3292.29 1172.64 3381.46 1192.6 3395.43C1199.77 3400.45 1247.79 3401.98 1254.98 3397.41C1260.4 3393.97 1273.34 3361.42 1281.63 3330.38C1292 3291.56 1293.26 3253.3 1285.43 3214.59C1281.85 3196.85 1277.98 3176.35 1276.82 3169.02C1274.01 3151.11 1282.96 3099.75 1295.89 3059.6C1306.42 3026.91 1342.86 2942.22 1346.45 2942.1C1349.24 2942.02 1352.58 2994.86 1352.55 3038.49C1352.53 3059.07 1350.46 3091.86 1347.94 3111.38C1337.13 3194.97 1338.52 3255.55 1352.75 3321.03C1360.74 3357.77 1374.28 3398.72 1380.51 3404.94C1386.4 3410.83 1410.52 3411.27 1418.24 3405.62C1422.69 3402.36 1424.47 3393.55 1426.85 3362.88C1428.49 3341.64 1429.9 3311.92 1429.98 3296.84C1430.18 3259.13 1436.08 3247.38 1472.1 3212.97C1503.09 3183.37 1508.63 3173.09 1504.21 3153.46C1500.28 3136.04 1493.43 3127.67 1472.86 3115.15C1445.05 3098.24 1441.22 3089.88 1441.54 3046.87C1441.84 3006.18 1447.76 2965.89 1466.15 2879.15C1486.46 2783.38 1484.5 2750.62 1453.34 2664.66C1433.54 2610.05 1430.25 2596.9 1427.89 2562.82C1425.47 2527.94 1423.67 2534.2 1473.72 2403.4C1525.13 2269.03 1542.74 2215.83 1554.16 2160.37L1556.06 2151.19L1577.69 2153.36C1593.98 2154.98 1601.61 2154.33 1608.59 2150.7C1618.41 2145.59 1622.52 2146.28 1638.03 2155.63C1643.35 2158.84 1651.23 2161.47 1655.55 2161.48C1676.89 2161.51 1716.49 2130.99 1733.35 2101.52C1748.12 2075.69 1752.99 2073.32 1778.09 2079.69C1802.73 2085.95 1817.46 2082.73 1835.11 2067.23C1843.66 2059.72 1851.21 2056.5 1864.49 2054.7C1898.37 2050.1 1910.57 2039.69 1910.57 2015.4C1910.57 2008.48 1912.99 2002.26 1917.14 1998.51C1920.75 1995.24 1922.93 1990.56 1921.99 1988.1C1921.04 1985.64 1921.86 1980.66 1923.8 1977.03C1926.72 1971.59 1929.53 1970.73 1939.91 1972.12C1951.83 1973.72 1952.61 1973.28 1955.1 1963.63C1957.29 1955.09 1959.76 1953.03 1970.43 1950.81C1994.87 1945.71 1999.29 1943.56 2003.55 1934.66C2007.26 1926.93 2007.06 1923.47 2002.07 1909.6C1997.39 1896.59 1997.03 1892.3 2000.2 1887.24C2007.77 1875.11 2004.71 1862.12 1992.82 1855.9C1982.73 1850.62 1866.57 1820.07 1836.24 1814.72C1747.36 1799.05 1568.54 1791.96 1501.35 1801.44C1457.39 1807.65 1451.69 1805.95 1427.38 1779.35C1403.18 1752.86 1399.45 1732.72 1410.64 1688.97C1416.85 1664.66 1425 1647.69 1457.1 1592.21C1465.31 1578.02 1476.62 1554.24 1482.24 1539.36C1490.57 1517.31 1497.11 1506.89 1517.66 1482.92C1549.01 1446.36 1562.59 1420.89 1573.31 1378.55C1577.92 1360.38 1589.68 1320.47 1599.46 1289.85C1609.24 1259.24 1623.75 1209.88 1631.71 1180.18C1639.67 1150.47 1652.12 1107.65 1659.37 1085.03L1672.56 1043.89L1670.8 984.22C1668.17 895.509 1650.99 717.944 1643.99 707.226C1640.96 702.575 1626.7 685.709 1612.31 669.743C1597.92 653.777 1575.14 626.926 1561.69 610.073C1541.14 584.338 1506 549.442 1492.59 541.462C1490.66 540.314 1487.39 541.056 1485.33 543.114Z" fill="#FFD400"/>
</svg>
