<svg width="3749" height="1030" viewBox="0 0 3749 1030" fill="none" xmlns="http://www.w3.org/2000/svg">
<path d="M429.239 0C731.463 0.000147458 976.464 230.569 976.464 514.99C976.464 799.411 731.463 1029.98 429.239 1029.98C255.252 1029.98 100.231 953.563 0 834.449C83.6051 903.654 193.039 945.588 312.818 945.588C575.41 945.588 788.282 744.055 788.282 495.452C788.282 246.849 575.41 45.3156 312.818 45.3154C254.926 45.3154 199.451 55.112 148.14 73.0479C230.298 26.6663 326.46 0 429.239 0Z" fill="#FFD400"/>
<path d="M179.669 150.164L171.384 168.248L153.366 176.467L171.384 184.753L179.669 202.771L187.889 184.753L205.973 176.467L187.889 168.248M113.911 169.892L97.4717 206.058L61.3047 222.498L97.4717 238.938L113.911 275.105L130.351 238.938L166.518 222.498L130.351 206.058M179.669 242.225L171.384 260.243L153.366 268.529L171.384 276.748L179.669 294.832L187.889 276.748L205.973 268.529L187.889 260.243" fill="#FFD400"/>
<path fill-rule="evenodd" clip-rule="evenodd" d="M412.744 150.929C410.877 152.796 411.621 154.281 417.619 160.668C420.873 164.132 423.326 167.175 423.071 167.429C422.817 167.684 418.152 166.756 412.704 165.368C402.207 162.693 401.525 162.784 400.486 166.997C399.726 170.077 401.224 170.9 409.735 172.08C417.807 173.198 421.196 175.117 424.955 180.697C428.736 186.311 427.702 187.434 421.598 184.341C412.227 179.593 408.106 183.353 416.856 188.668C419.742 190.421 422.889 192.739 423.849 193.821C427.563 198.001 434.276 202.606 438.797 204.075C446.194 206.479 447.554 208.186 447.554 215.076C447.554 218.263 446.547 232.006 445.318 245.617C444.088 259.227 442.742 276.211 442.326 283.358C441.572 296.341 441.567 296.365 436.87 307.417C434.283 313.503 429.333 326.409 425.868 336.097C422.403 345.786 418.558 355.73 417.325 358.195C414.87 363.096 402.063 376.099 397.007 378.823C394.13 380.371 393.812 380.38 391.658 378.969C388.802 377.097 387.125 371.295 387.869 365.863C388.186 363.552 389.944 359.335 392.029 355.884C395.348 350.391 395.931 349.869 399.225 349.427C407.061 348.376 410.8 343.431 410.804 334.114C410.808 328.618 411.083 327.645 413.379 325.03C416.488 321.489 417.538 315.831 416.195 309.842C414.847 303.829 413.13 300.897 409.015 297.59C407.045 296.007 404.246 292.609 402.794 290.036C399.016 283.34 394.339 281.179 384.976 281.799C376.632 282.353 367.051 285.275 363.341 288.397C361.835 289.663 359.158 293.182 357.391 296.216C353.724 302.512 350.965 305.764 349.29 305.764C347.472 305.764 346.278 308.848 346.277 313.547C346.277 315.922 345.457 320.022 344.454 322.66C342.066 328.944 341.887 333.593 343.985 334.84C349.273 337.984 352.725 341.129 354.32 344.255C358.02 351.508 355.657 369.754 350.374 374.717L348.161 376.795L344.609 369.107C342.656 364.88 338.955 358.408 336.385 354.727L331.712 348.034L327.305 326.676C319.547 289.075 320.091 293.657 322.029 282.238C322.971 276.693 324.189 265.097 324.735 256.471C325.747 240.481 328.577 217.969 330.219 212.858C331.283 209.544 331.967 209.214 340.189 208.048C344.661 207.413 349.244 205.785 356.64 202.203C367.32 197.029 368.835 195.357 364.427 193.608C362.459 192.826 360.925 192.984 356.809 194.394L351.656 196.158V193.633C351.656 189.585 356.221 185.19 362.675 183.025C369.765 180.646 370.73 180.004 370.31 177.942C370.015 176.488 369.263 176.295 364.845 176.531C362.027 176.683 359.722 176.566 359.722 176.272C359.722 175.978 361.335 174.203 363.307 172.327C365.279 170.451 366.892 168.438 366.892 167.853C366.892 165.527 363.921 165.86 359.46 168.686C356.892 170.312 349.62 174.653 343.299 178.333C325.32 188.801 318.893 195.66 316.694 206.73C316.107 209.687 313.038 221.095 309.875 232.082C302.674 257.091 298.777 274.393 298.777 281.353C298.777 287.749 303.438 328.413 305.992 344.303C308.098 357.408 310.094 366.128 314.44 381.225C319.027 397.157 318.852 399.713 312.299 412.565C305.712 425.486 304.957 429.88 307.514 440.455C311.997 458.993 318.991 481.693 325.24 497.981C330.805 512.49 331.84 515.95 330.877 516.83C330.228 517.422 325.261 519.958 319.839 522.464C307.702 528.072 282.391 539.979 256.011 552.491C245.06 557.684 232.686 563.996 228.514 566.516C224.342 569.036 217.976 572.448 214.368 574.098C204.587 578.572 202.396 581.823 206.153 586.289C207.922 588.391 208.317 589.591 207.854 591.466C205.953 599.167 206.366 600.468 211.004 601.417C213.397 601.906 214.129 602.594 214.73 604.913C215.41 607.535 215.793 607.799 218.937 607.799C222.182 607.799 222.433 607.994 222.986 610.934C223.521 613.786 223.824 614.048 226.366 613.847C228.833 613.65 229.251 613.965 229.936 616.532C230.362 618.131 232.125 620.852 233.853 622.581C238.477 627.205 242.275 626.978 249.109 621.672C253.566 618.21 260.875 614.967 264.211 614.97C264.737 614.97 267.725 616.179 270.85 617.658C278.612 621.33 280.088 621.163 285.611 615.989C293.086 608.985 295.326 608.39 304.216 611.044C310.826 613.017 317.425 612.837 322.614 610.541C324.96 609.504 327.184 608.967 327.556 609.347C327.928 609.727 329.297 615.686 330.598 622.587C334.373 642.595 338.688 658.626 346.76 682.635C356.344 711.135 357.004 714.055 357.02 728.058C357.032 738.867 356.863 739.941 353.548 750.016C347.855 767.319 346.188 777.83 344.477 807.213C342.655 838.517 341.665 844.81 337.189 853.586C333.841 860.149 329.905 872.74 329.13 879.361C324.979 914.844 325.856 939.62 331.401 943.504C333.393 944.898 346.737 945.321 348.734 944.053C350.241 943.096 353.837 934.052 356.14 925.428C359.021 914.641 359.371 904.01 357.197 893.252C356.201 888.323 355.125 882.626 354.805 880.59C354.024 875.614 356.51 861.342 360.102 850.187C363.029 841.101 373.155 817.568 374.151 817.537C374.926 817.513 375.855 832.196 375.847 844.321C375.843 850.037 375.266 859.15 374.565 864.573C371.562 887.801 371.948 904.633 375.904 922.828C378.123 933.038 381.886 944.416 383.615 946.145C385.251 947.782 391.955 947.904 394.1 946.334C395.338 945.429 395.832 942.98 396.491 934.459C396.947 928.555 397.34 920.297 397.362 916.107C397.419 905.628 399.058 902.364 409.066 892.802C417.677 884.577 419.217 881.721 417.988 876.266C416.896 871.425 414.992 869.1 409.276 865.622C401.55 860.921 400.486 858.6 400.574 846.648C400.659 835.342 402.301 824.147 407.413 800.043C413.056 773.433 412.512 764.329 403.852 740.443C398.351 725.269 397.438 721.616 396.782 712.146C396.11 702.453 395.61 704.192 409.515 667.847C423.801 630.509 428.694 615.727 431.87 600.318L432.396 597.766L438.406 598.367C442.932 598.82 445.053 598.637 446.993 597.629C449.722 596.21 450.865 596.401 455.172 599C456.651 599.892 458.842 600.623 460.042 600.625C465.971 600.634 476.974 592.154 481.659 583.963C485.765 576.788 487.117 576.128 494.09 577.897C500.939 579.636 505.031 578.742 509.935 574.437C512.312 572.35 514.409 571.455 518.099 570.954C527.513 569.677 530.904 566.784 530.904 560.033C530.904 558.111 531.577 556.383 532.728 555.34C533.732 554.432 534.338 553.131 534.076 552.448C533.814 551.765 534.041 550.38 534.581 549.372C535.391 547.859 536.173 547.62 539.056 548.007C542.369 548.451 542.586 548.329 543.276 545.648C543.886 543.276 544.572 542.703 547.537 542.085C554.33 540.67 555.556 540.072 556.741 537.598C557.771 535.449 557.715 534.488 556.329 530.634C555.029 527.019 554.929 525.828 555.808 524.421C557.913 521.051 557.063 517.441 553.759 515.712C550.955 514.245 518.677 505.758 510.25 504.271C485.552 499.915 435.863 497.945 417.194 500.581C404.979 502.306 403.396 501.833 396.641 494.443C389.915 487.083 388.878 481.486 391.988 469.327C393.715 462.572 395.979 457.858 404.897 442.442C407.179 438.498 410.322 431.89 411.883 427.757C414.197 421.63 416.015 418.734 421.726 412.072C430.436 401.914 434.211 394.836 437.191 383.072C438.469 378.023 441.739 366.932 444.456 358.425C447.174 349.919 451.206 336.204 453.417 327.95C455.629 319.695 459.088 307.797 461.103 301.511L464.769 290.08L464.279 273.5C463.549 248.849 458.774 199.509 456.83 196.531C455.987 195.239 452.025 190.552 448.027 186.116C444.029 181.68 437.699 174.218 433.96 169.535C428.251 162.384 418.486 152.688 414.76 150.47C414.223 150.151 413.315 150.358 412.744 150.929Z" fill="#FFD400"/>
<path fill-rule="evenodd" clip-rule="evenodd" d="M3306.35 61.1693C3163.82 76.9296 3056.98 146.003 3004.28 256.457C2978.24 311.028 2967.27 380.526 2973 454.66C2980.19 547.813 3005.88 612.09 3056.97 664.802C3094.09 703.088 3132.7 726.205 3190.23 744.584C3244.05 761.773 3297.68 769.233 3367.45 769.233C3463.9 769.233 3536.04 754.558 3599.79 721.971C3691.91 674.879 3742.19 601.519 3742.19 514.203V494.14H3614.29H3486.38V506.288C3486.38 523.644 3482.12 534.082 3470.82 544.407C3452.26 561.353 3432.88 564.942 3360.11 564.915C3310.1 564.897 3305.15 564.633 3289.24 561.152C3239.22 550.206 3219.62 530.079 3211.74 481.577C3210.46 473.713 3209.41 466.364 3209.41 465.244C3209.4 463.624 3263.89 463.209 3476.43 463.209C3711.44 463.209 3743.58 462.918 3744.4 460.785C3744.91 459.452 3746.18 445.348 3747.22 429.447C3752.44 349.266 3738.82 278.692 3707.34 222.913C3657.8 135.118 3568.42 81.6524 3440.76 63.4403C3419.04 60.3406 3327.78 58.7989 3306.35 61.1693ZM2636.3 71.808C2564.34 80.5177 2503.45 113.18 2465.59 163.388C2444.99 190.699 2425.48 236.326 2418.32 273.958L2415.45 289.016H2409.17H2402.89V185.64V82.2645H2275.05H2147.2L2146.68 274.772C2146.15 467.061 2146.15 467.293 2142.58 480.705C2129.02 531.557 2100.79 547.341 2017.7 550.543C1961.56 552.706 1913.17 544.44 1888.42 528.45C1870.42 516.828 1859.97 499.649 1852.68 469.721C1850.51 460.804 1849.94 440.429 1849.02 340.297C1847.97 225.736 1847.8 221.006 1844.45 208.961C1827.45 147.885 1783.43 103.62 1723.66 87.513C1708.47 83.4187 1706.24 83.2689 1650.56 82.6487L1593.12 82.0089L1593.14 312.902C1593.15 549.227 1593.36 558.045 1599.7 588.414C1601.46 596.839 1602.9 603.983 1602.9 604.287C1602.9 604.593 1525.55 604.842 1431.01 604.842H1259.11V346.809V88.7763H1162.17H1065.23V434.776V780.777L1499.85 780.137C1808.15 779.683 1937.78 778.969 1945.87 777.685C1972.22 773.5 1986.29 768.86 2011.86 755.934C2042.48 740.45 2063.05 726.096 2082.8 706.434C2115.03 674.342 2139.88 625.169 2148.43 576.556L2151.34 560.073L2157.15 559.58L2162.97 559.086L2163.8 592.139C2164.52 620.879 2165.19 627.316 2168.89 641.471C2185.3 704.104 2236.29 751.351 2300.65 763.549C2310.56 765.428 2326.12 766.011 2366.33 766.011H2419.02L2419.64 575.132C2420.32 368.762 2420.02 375.865 2429.07 351.693C2443.84 312.265 2477.56 298.374 2558.49 298.374C2635.61 298.374 2672.94 312.431 2690.36 348.035C2704.18 376.271 2704.31 378.613 2704.31 586.485V766.011H2832.26H2960.21L2959.63 525.479C2959 262.863 2959.68 281.905 2949.61 244.111C2942.16 216.132 2927.37 184.905 2910.73 162.035C2900.4 147.821 2877.17 125.985 2860.62 114.928C2822.91 89.7206 2784.74 76.5389 2733.3 70.9582C2711.83 68.6286 2658.72 69.0942 2636.3 71.808ZM3445.62 164.557C3448.26 170.562 3449.91 171.778 3464.19 178.225C3472.81 182.118 3479.87 185.8 3479.87 186.41C3479.87 187.019 3472.72 190.822 3463.98 194.86L3448.1 202.2L3440.89 218.735L3433.68 235.269L3426.23 218.714L3418.77 202.161L3402.88 194.78C3394.15 190.721 3387 186.974 3387 186.454C3387 185.935 3394.15 182.201 3402.88 178.157L3418.77 170.805L3426.1 154.12L3433.43 137.435L3438.08 147.701C3440.64 153.346 3444.03 160.931 3445.62 164.557ZM3324.22 210.06C3331.94 227.072 3339.14 241.82 3340.22 242.833C3341.31 243.845 3356.62 251.165 3374.25 259.096C3391.88 267.027 3406.01 273.819 3405.64 274.19C3405.27 274.56 3390.16 281.581 3372.07 289.793L3339.17 304.723L3324.23 337.59C3316.01 355.669 3308.99 370.762 3308.62 371.133C3308.24 371.502 3301.45 357.391 3293.51 339.772C3285.57 322.154 3278.24 306.854 3277.23 305.773C3276.22 304.694 3261.46 297.496 3244.43 289.782C3227.41 282.067 3212.92 275.218 3212.24 274.563C3211.57 273.907 3225.96 266.588 3244.23 258.297L3277.44 243.222L3292.57 209.9C3300.89 191.573 3308.26 177.151 3308.94 177.852C3309.62 178.554 3316.5 193.048 3324.22 210.06ZM3465.35 353.818L3481.9 361.524L3465.38 369.122L3448.86 376.72L3441.23 393.286L3433.59 409.852L3425.84 393.307L3418.09 376.762L3401.59 369.169L3385.08 361.578L3401.62 353.844L3418.17 346.111L3425.8 329.636L3433.43 313.161L3441.11 329.636L3448.8 346.109L3465.35 353.818Z" fill="#FFD400"/>
<path d="M1074.98 853.858C1074.98 847.468 1076.65 841.841 1079.99 836.977C1083.32 832.017 1087.9 828.154 1093.72 825.388C1099.63 822.527 1106.36 821.096 1113.89 821.096C1121.52 821.096 1128.1 822.431 1133.64 825.102C1139.17 827.773 1143.41 831.54 1146.37 836.404C1149.42 841.269 1150.95 847.039 1150.95 853.715H1127.91C1127.91 849.996 1126.63 847.087 1124.05 844.988C1121.48 842.795 1117.99 841.698 1113.61 841.698C1108.93 841.698 1105.17 842.699 1102.3 844.702C1099.54 846.705 1098.16 849.471 1098.16 853C1098.16 856.243 1099.01 858.723 1100.73 860.44C1102.45 862.156 1105.17 863.396 1108.89 864.159L1124.77 867.45C1134.21 869.357 1141.22 872.696 1145.8 877.465C1150.37 882.138 1152.66 888.671 1152.66 897.065C1152.66 903.837 1150.99 909.798 1147.66 914.948C1144.32 920.003 1139.6 923.914 1133.49 926.68C1127.48 929.446 1120.43 930.829 1112.32 930.829C1104.5 930.829 1097.63 929.493 1091.72 926.823C1085.9 924.152 1081.37 920.385 1078.13 915.52C1074.98 910.561 1073.4 904.79 1073.4 898.209H1096.44C1096.44 902.024 1097.82 904.981 1100.59 907.079C1103.35 909.178 1107.31 910.227 1112.46 910.227C1117.71 910.227 1121.86 909.273 1124.91 907.366C1127.96 905.363 1129.49 902.692 1129.49 899.354C1129.49 896.397 1128.72 894.108 1127.2 892.487C1125.77 890.865 1123.29 889.721 1119.76 889.053L1103.59 885.762C1094.15 883.855 1087 880.231 1082.13 874.889C1077.36 869.548 1074.98 862.538 1074.98 853.858ZM1306.65 834.258V928.969H1283.48V834.258H1306.65ZM1253.43 844.559V823.099H1336.7V844.559H1253.43ZM1444.83 889.196V823.099H1468V887.622C1468 894.299 1469.77 899.402 1473.3 902.931C1476.83 906.46 1481.83 908.224 1488.32 908.224C1494.9 908.224 1499.95 906.412 1503.48 902.787C1507.11 899.163 1508.92 894.108 1508.92 887.622V823.099H1532.1V889.196C1532.1 897.589 1530.29 904.886 1526.66 911.085C1523.13 917.285 1518.08 922.102 1511.5 925.535C1504.91 928.969 1497.19 930.686 1488.32 930.686C1479.54 930.686 1471.87 929.016 1465.28 925.678C1458.8 922.245 1453.74 917.428 1450.12 911.228C1446.59 904.933 1444.83 897.589 1444.83 889.196ZM1689.85 928.969H1648.36V823.099H1688.42C1698.81 823.099 1707.92 825.34 1715.74 829.823C1723.66 834.306 1729.86 840.553 1734.34 848.565C1738.82 856.577 1741.07 865.828 1741.07 876.32C1741.07 886.621 1738.87 895.729 1734.48 903.646C1730.19 911.562 1724.18 917.762 1716.46 922.245C1708.83 926.727 1699.96 928.969 1689.85 928.969ZM1671.54 833.686V918.668L1660.52 907.509H1687.56C1693.66 907.509 1698.86 906.269 1703.15 903.789C1707.54 901.309 1710.88 897.732 1713.17 893.059C1715.46 888.385 1716.6 882.806 1716.6 876.32C1716.6 869.644 1715.36 863.969 1712.88 859.295C1710.5 854.526 1707.02 850.902 1702.44 848.422C1697.96 845.847 1692.52 844.559 1686.13 844.559H1660.52L1671.54 833.686ZM1875.33 823.099V928.969H1852.15V823.099H1875.33ZM2090.24 875.891C2090.24 886.669 2088.04 896.206 2083.66 904.504C2079.27 912.707 2073.16 919.145 2065.34 923.818C2057.52 928.396 2048.46 930.686 2038.16 930.686C2027.95 930.686 2018.94 928.396 2011.12 923.818C2003.39 919.145 1997.34 912.707 1992.95 904.504C1988.66 896.302 1986.51 886.812 1986.51 876.034C1986.51 865.256 1988.71 855.766 1993.09 847.564C1997.48 839.266 2003.54 832.828 2011.26 828.249C2019.08 823.576 2028.1 821.239 2038.3 821.239C2048.6 821.239 2057.62 823.576 2065.34 828.249C2073.16 832.828 2079.27 839.218 2083.66 847.42C2088.04 855.623 2090.24 865.113 2090.24 875.891ZM2065.77 875.891C2065.77 869.119 2064.68 863.349 2062.48 858.58C2060.29 853.715 2057.14 849.996 2053.04 847.42C2049.03 844.845 2044.17 843.558 2038.45 843.558C2032.72 843.558 2027.81 844.845 2023.71 847.42C2019.61 849.996 2016.46 853.715 2014.27 858.58C2012.07 863.349 2010.98 869.119 2010.98 875.891C2010.98 882.663 2012.07 888.481 2014.27 893.345C2016.46 898.209 2019.61 901.929 2023.71 904.504C2027.81 907.079 2032.72 908.367 2038.45 908.367C2044.17 908.367 2049.03 907.079 2053.04 904.504C2057.14 901.834 2060.29 898.066 2062.48 893.202C2064.68 888.338 2065.77 882.567 2065.77 875.891ZM2375.65 928.969H2334.16V823.099H2374.22C2384.62 823.099 2393.73 825.34 2401.55 829.823C2409.46 834.306 2415.66 840.553 2420.15 848.565C2424.63 856.577 2426.87 865.828 2426.87 876.32C2426.87 886.621 2424.68 895.729 2420.29 903.646C2416 911.562 2409.99 917.762 2402.26 922.245C2394.63 926.727 2385.76 928.969 2375.65 928.969ZM2357.34 833.686V918.668L2346.32 907.509H2373.36C2379.47 907.509 2384.67 906.269 2388.96 903.789C2393.35 901.309 2396.68 897.732 2398.97 893.059C2401.26 888.385 2402.41 882.806 2402.41 876.32C2402.41 869.644 2401.17 863.969 2398.69 859.295C2396.3 854.526 2392.82 850.902 2388.24 848.422C2383.76 845.847 2378.32 844.559 2371.93 844.559H2346.32L2357.34 833.686ZM2605.2 928.969H2537.96V823.099H2605.2V844.559H2554.7L2561.13 838.55V865.304H2600.19V885.619H2561.13V913.517L2554.7 907.509H2605.2V928.969ZM2893.43 928.969H2851.94V823.099H2892C2902.39 823.099 2911.5 825.34 2919.32 829.823C2927.24 834.306 2933.44 840.553 2937.92 848.565C2942.41 856.577 2944.65 865.828 2944.65 876.32C2944.65 886.621 2942.45 895.729 2938.07 903.646C2933.77 911.562 2927.76 917.762 2920.04 922.245C2912.41 926.727 2903.54 928.969 2893.43 928.969ZM2875.12 833.686V918.668L2864.1 907.509H2891.14C2897.24 907.509 2902.44 906.269 2906.73 903.789C2911.12 901.309 2914.46 897.732 2916.75 893.059C2919.04 888.385 2920.18 882.806 2920.18 876.32C2920.18 869.644 2918.94 863.969 2916.46 859.295C2914.08 854.526 2910.6 850.902 2906.02 848.422C2901.54 845.847 2896.1 844.559 2889.71 844.559H2864.1L2875.12 833.686ZM3064.46 928.969H3040.28L3078.05 823.099H3100.65L3138.28 928.969H3113.67L3106.23 906.65H3072.04L3064.46 928.969ZM3086.34 864.589L3078.76 887.193H3099.65L3092.07 864.589C3091.5 862.776 3090.92 860.916 3090.35 859.009C3089.78 857.101 3089.4 855.528 3089.21 854.288C3089.02 855.528 3088.63 857.101 3088.06 859.009C3087.58 860.821 3087.01 862.681 3086.34 864.589ZM3268.45 928.969H3245.56V823.099H3268.45L3320.24 901.214H3313.09V823.099H3335.98V928.969H3313.09L3261.3 850.997H3268.45V928.969ZM3498.77 930.686C3488.18 930.686 3479.02 928.492 3471.3 924.104C3463.57 919.622 3457.61 913.327 3453.41 905.22C3449.22 897.017 3447.12 887.336 3447.12 876.177C3447.12 865.113 3449.31 855.48 3453.7 847.277C3458.09 839.075 3464.24 832.732 3472.16 828.249C3480.07 823.671 3489.28 821.382 3499.77 821.382C3508.64 821.382 3516.51 823.004 3523.37 826.247C3530.34 829.394 3536.01 833.877 3540.4 839.695C3544.79 845.513 3547.5 852.38 3548.55 860.296H3524.09C3522.56 854.955 3519.61 850.854 3515.22 847.993C3510.93 845.131 3505.59 843.701 3499.2 843.701C3493.47 843.701 3488.51 844.988 3484.32 847.564C3480.22 850.139 3477.07 853.858 3474.87 858.723C3472.68 863.492 3471.58 869.262 3471.58 876.034C3471.58 882.615 3472.68 888.338 3474.87 893.202C3477.16 898.066 3480.36 901.834 3484.46 904.504C3488.66 907.079 3493.57 908.367 3499.2 908.367C3505.68 908.367 3511.17 906.889 3515.65 903.932C3520.23 900.88 3523.23 896.731 3524.66 891.485H3548.7C3547.46 899.306 3544.55 906.173 3539.97 912.087C3535.49 918 3529.72 922.578 3522.66 925.821C3515.6 929.064 3507.64 930.686 3498.77 930.686ZM3487.03 959.442V950.286C3488.85 951.049 3490.52 951.669 3492.04 952.146C3493.66 952.718 3495.48 953.004 3497.48 953.004C3500.24 953.004 3502.25 952.432 3503.49 951.287C3504.82 950.238 3505.49 948.855 3505.49 947.138C3505.49 945.517 3504.92 944.277 3503.77 943.419C3502.72 942.56 3501.2 942.131 3499.2 942.131C3497.76 942.131 3496.48 942.226 3495.33 942.417C3494.28 942.608 3493.23 942.894 3492.19 943.275L3490.18 937.696L3497.34 922.817L3503.49 922.96V927.681L3498.19 937.839L3497.34 936.837C3498.96 935.598 3501.29 934.978 3504.35 934.978C3506.25 934.978 3508.16 935.359 3510.07 936.122C3511.98 936.981 3513.55 938.268 3514.79 939.985C3516.13 941.797 3516.79 944.182 3516.79 947.138C3516.79 952.003 3515.03 955.722 3511.5 958.298C3507.97 960.873 3503.68 962.16 3498.62 962.16C3496.14 962.16 3494 961.874 3492.19 961.302C3490.37 960.825 3488.66 960.205 3487.03 959.442ZM3668.58 928.969H3644.4L3682.17 823.099H3704.77L3742.4 928.969H3717.79L3710.35 906.65H3676.16L3668.58 928.969ZM3690.46 864.589L3682.88 887.193H3703.77L3696.19 864.589C3695.62 862.776 3695.04 860.916 3694.47 859.009C3693.9 857.101 3693.52 855.528 3693.33 854.288C3693.14 855.528 3692.75 857.101 3692.18 859.009C3691.7 860.821 3691.13 862.681 3690.46 864.589Z" fill="#FFD400"/>
</svg>
