<svg width="2684" height="2599" viewBox="0 0 2684 2599" fill="none" xmlns="http://www.w3.org/2000/svg">
<path d="M1249.9 0C1719.37 0 2099.96 358.167 2099.96 799.989C2099.96 1241.81 1719.37 1599.98 1249.9 1599.98C979.626 1599.98 738.816 1481.28 583.117 1296.25C712.989 1403.74 882.98 1468.88 1069.04 1468.88C1476.95 1468.88 1807.63 1155.82 1807.63 769.635C1807.63 383.452 1476.95 70.3887 1069.04 70.3887C979.123 70.3887 892.957 85.6047 813.259 113.46C940.879 41.4186 1090.25 1.58433e-05 1249.9 0Z" fill="#BD14DF"/>
<path d="M862.205 233.266L849.334 261.357L821.345 274.125L849.334 286.996L862.205 314.985L874.973 286.996L903.064 274.125L874.973 261.357M760.055 263.91L734.518 320.092L678.336 345.63L734.518 371.167L760.055 427.349L785.593 371.167L841.775 345.63L785.593 320.092M862.205 376.275L849.334 404.263L821.345 417.134L849.334 429.903L862.205 457.994L874.973 429.903L903.064 417.134L874.973 404.263" fill="#BD14DF"/>
<path fill-rule="evenodd" clip-rule="evenodd" d="M1224.26 234.454C1221.36 237.354 1222.52 239.661 1231.84 249.582C1236.89 254.963 1240.7 259.69 1240.31 260.085C1239.91 260.48 1232.67 259.039 1224.2 256.883C1207.9 252.728 1206.84 252.869 1205.22 259.414C1204.04 264.198 1206.37 265.477 1219.59 267.309C1232.13 269.047 1237.4 272.028 1243.23 280.696C1249.11 289.417 1247.5 291.161 1238.02 286.356C1223.46 278.98 1217.06 284.821 1230.65 293.077C1235.14 295.8 1240.03 299.402 1241.52 301.082C1247.29 307.575 1257.71 314.729 1264.74 317.011C1276.23 320.745 1278.34 323.397 1278.34 334.1C1278.34 339.051 1276.78 360.399 1274.87 381.542C1272.96 402.684 1270.86 429.067 1270.22 440.17C1269.05 460.338 1269.04 460.374 1261.74 477.543C1257.72 486.997 1250.04 507.045 1244.65 522.095C1239.27 537.146 1233.3 552.593 1231.38 556.422C1227.57 564.036 1207.67 584.234 1199.82 588.465C1195.35 590.871 1194.86 590.885 1191.51 588.692C1187.07 585.785 1184.47 576.772 1185.62 568.334C1186.12 564.744 1188.85 558.193 1192.09 552.832C1197.24 544.299 1198.15 543.488 1203.26 542.801C1215.44 541.168 1221.25 533.487 1221.25 519.015C1221.26 510.477 1221.69 508.966 1225.25 504.903C1230.08 499.403 1231.71 490.614 1229.63 481.311C1227.53 471.969 1224.87 467.415 1218.47 462.277C1215.41 459.819 1211.07 454.539 1208.81 450.544C1202.94 440.142 1195.68 436.784 1181.13 437.748C1168.17 438.608 1153.29 443.147 1147.52 447.997C1145.18 449.965 1141.02 455.43 1138.28 460.143C1132.58 469.924 1128.3 474.976 1125.7 474.976C1122.87 474.976 1121.02 479.767 1121.02 487.066C1121.02 490.754 1119.74 497.124 1118.18 501.221C1114.47 510.983 1114.2 518.205 1117.45 520.143C1125.67 525.027 1131.03 529.912 1133.51 534.768C1139.26 546.034 1135.59 574.377 1127.38 582.087L1123.94 585.316L1118.42 573.373C1115.39 566.806 1109.64 556.753 1105.65 551.035L1098.39 540.638L1091.54 507.46C1079.49 449.05 1080.34 456.168 1083.35 438.43C1084.81 429.816 1086.7 411.803 1087.55 398.403C1089.12 373.564 1093.52 338.594 1096.07 330.654C1097.72 325.506 1098.79 324.994 1111.56 323.182C1118.51 322.197 1125.62 319.667 1137.11 314.102C1153.7 306.066 1156.06 303.468 1149.21 300.751C1146.15 299.537 1143.77 299.782 1137.38 301.972L1129.37 304.713V300.79C1129.37 294.502 1136.46 287.675 1146.49 284.311C1157.5 280.616 1159 279.619 1158.35 276.416C1157.89 274.158 1156.72 273.857 1149.86 274.224C1145.48 274.46 1141.9 274.279 1141.9 273.821C1141.9 273.364 1144.41 270.607 1147.47 267.693C1150.53 264.78 1153.04 261.653 1153.04 260.743C1153.04 257.131 1148.42 257.647 1141.49 262.037C1137.51 264.562 1126.21 271.306 1116.39 277.023C1088.46 293.284 1078.48 303.939 1075.06 321.134C1074.15 325.729 1069.38 343.45 1064.47 360.516C1053.28 399.367 1047.23 426.244 1047.23 437.054C1047.23 446.991 1054.47 510.159 1058.44 534.842C1061.71 555.199 1064.81 568.746 1071.56 592.196C1078.68 616.946 1078.41 620.917 1068.23 640.881C1058 660.952 1056.83 667.778 1060.8 684.205C1067.76 713.002 1078.63 748.264 1088.34 773.567C1096.98 796.106 1098.59 801.48 1097.09 802.847C1096.08 803.767 1088.37 807.706 1079.95 811.598C1061.09 820.31 1021.77 838.807 980.796 858.242C963.784 866.31 944.563 876.114 938.081 880.029C931.6 883.944 921.711 889.245 916.107 891.808C900.912 898.758 897.509 903.807 903.346 910.745C906.094 914.01 906.707 915.875 905.988 918.788C903.035 930.75 903.676 932.771 910.88 934.244C914.598 935.005 915.735 936.074 916.669 939.675C917.725 943.749 918.321 944.158 923.205 944.158C928.244 944.158 928.636 944.462 929.493 949.028C930.324 953.46 930.796 953.866 934.745 953.553C938.576 953.248 939.226 953.737 940.29 957.724C940.951 960.208 943.691 964.436 946.375 967.122C953.558 974.304 959.458 973.952 970.074 965.709C976.998 960.332 988.351 955.293 993.533 955.298C994.35 955.298 998.992 957.177 1003.85 959.474C1015.9 965.178 1018.2 964.918 1026.78 956.881C1038.39 946.002 1041.87 945.077 1055.68 949.2C1065.94 952.265 1076.2 951.986 1084.26 948.419C1087.9 946.808 1091.36 945.973 1091.93 946.564C1092.51 947.155 1094.64 956.41 1096.66 967.13C1102.52 998.212 1109.23 1023.11 1121.77 1060.41C1136.65 1104.68 1137.68 1109.22 1137.7 1130.97C1137.72 1147.76 1137.46 1149.43 1132.31 1165.08C1123.47 1191.96 1120.88 1208.29 1118.22 1253.93C1115.39 1302.56 1113.85 1312.33 1106.9 1325.97C1101.7 1336.16 1095.58 1355.72 1094.38 1366C1087.93 1421.12 1089.29 1459.61 1097.91 1465.65C1101 1467.81 1121.73 1468.47 1124.83 1466.5C1127.17 1465.01 1132.76 1450.96 1136.34 1437.57C1140.81 1420.81 1141.35 1404.3 1137.98 1387.58C1136.43 1379.93 1134.76 1371.08 1134.26 1367.92C1133.05 1360.19 1136.91 1338.01 1142.49 1320.69C1147.04 1306.57 1162.77 1270.02 1164.32 1269.97C1165.52 1269.93 1166.96 1292.74 1166.95 1311.57C1166.94 1320.45 1166.05 1334.61 1164.96 1343.03C1160.29 1379.12 1160.89 1405.26 1167.04 1433.53C1170.48 1449.39 1176.33 1467.06 1179.02 1469.75C1181.56 1472.29 1191.97 1472.48 1195.3 1470.04C1197.23 1468.64 1197.99 1464.83 1199.02 1451.6C1199.73 1442.42 1200.34 1429.6 1200.37 1423.09C1200.46 1406.81 1203.01 1401.74 1218.55 1386.89C1231.93 1374.11 1234.32 1369.67 1232.41 1361.2C1230.72 1353.68 1227.76 1350.07 1218.88 1344.66C1206.88 1337.36 1205.22 1333.76 1205.36 1315.19C1205.49 1297.63 1208.04 1280.24 1215.98 1242.79C1224.75 1201.46 1223.91 1187.31 1210.45 1150.21C1201.91 1126.64 1200.49 1120.96 1199.47 1106.25C1198.43 1091.19 1197.65 1093.9 1219.25 1037.44C1241.44 979.438 1249.04 956.474 1253.98 932.537L1254.79 928.574L1264.13 929.508C1271.16 930.211 1274.46 929.927 1277.47 928.361C1281.71 926.157 1283.48 926.453 1290.17 930.491C1292.47 931.876 1295.87 933.012 1297.74 933.015C1306.95 933.029 1324.04 919.856 1331.32 907.132C1337.7 895.986 1339.8 894.961 1350.63 897.709C1361.27 900.41 1367.62 899.022 1375.24 892.334C1378.94 889.091 1382.19 887.702 1387.92 886.924C1402.55 884.94 1407.82 880.446 1407.82 869.959C1407.82 866.973 1408.86 864.289 1410.65 862.668C1412.21 861.258 1413.15 859.236 1412.74 858.176C1412.34 857.115 1412.69 854.964 1413.53 853.397C1414.79 851.047 1416 850.677 1420.48 851.277C1425.63 851.968 1425.96 851.778 1427.04 847.613C1427.98 843.929 1429.05 843.038 1433.65 842.078C1444.21 839.88 1446.11 838.952 1447.95 835.108C1449.55 831.77 1449.46 830.277 1447.31 824.29C1445.29 818.675 1445.14 816.825 1446.5 814.639C1449.77 809.404 1448.45 803.796 1443.32 801.111C1438.96 798.832 1388.82 785.647 1375.73 783.337C1337.37 776.571 1260.18 773.511 1231.18 777.606C1212.2 780.286 1209.74 779.551 1199.25 768.07C1188.8 756.637 1187.19 747.943 1192.02 729.056C1194.71 718.562 1198.22 711.239 1212.08 687.292C1215.62 681.166 1220.5 670.901 1222.93 664.48C1226.52 654.962 1229.35 650.464 1238.22 640.116C1251.75 624.335 1257.61 613.34 1262.24 595.066C1264.23 587.223 1269.31 569.995 1273.53 556.779C1277.75 543.566 1284.01 522.262 1287.45 509.439C1290.88 496.616 1296.26 478.134 1299.39 468.368L1305.08 450.612L1304.32 424.856C1303.19 386.564 1295.77 309.919 1292.75 305.292C1291.44 303.285 1285.29 296.005 1279.07 289.113C1272.86 282.221 1263.03 270.631 1257.22 263.357C1248.35 252.248 1233.18 237.185 1227.4 233.741C1226.56 233.245 1225.15 233.566 1224.26 234.454Z" fill="#BD14DF"/>
<path fill-rule="evenodd" clip-rule="evenodd" d="M2241.12 1690.18C2098.6 1705.95 1991.76 1775.02 1939.05 1885.47C1913.01 1940.04 1902.04 2009.54 1907.77 2083.68C1914.97 2176.83 1940.65 2241.11 1991.75 2293.82C2028.86 2332.1 2067.47 2355.22 2125.01 2373.6C2178.82 2390.79 2232.45 2398.25 2302.22 2398.25C2398.67 2398.25 2470.82 2383.57 2534.56 2350.99C2626.68 2303.89 2676.96 2230.54 2676.96 2143.22V2123.16H2549.06H2421.16V2135.3C2421.16 2152.66 2416.89 2163.1 2405.59 2173.42C2387.03 2190.37 2367.65 2193.96 2294.89 2193.93C2244.87 2193.91 2239.92 2193.65 2224.01 2190.17C2173.99 2179.22 2154.39 2159.09 2146.51 2110.59C2145.23 2102.73 2144.18 2095.38 2144.18 2094.26C2144.18 2092.64 2198.66 2092.22 2411.21 2092.22C2646.21 2092.22 2678.35 2091.93 2679.17 2089.8C2679.68 2088.47 2680.95 2074.36 2681.99 2058.46C2687.22 1978.28 2673.59 1907.71 2642.12 1851.93C2592.57 1764.13 2503.2 1710.67 2375.54 1692.46C2353.82 1689.36 2262.55 1687.81 2241.12 1690.18ZM1571.07 1700.82C1499.11 1709.53 1438.23 1742.2 1400.36 1792.4C1379.76 1819.71 1360.26 1865.34 1353.09 1902.97L1350.22 1918.03H1343.94H1337.67V1814.66V1711.28H1209.82H1081.98L1081.45 1903.79C1080.93 2096.08 1080.92 2096.31 1077.35 2109.72C1063.79 2160.57 1035.57 2176.36 952.473 2179.56C896.329 2181.72 847.948 2173.46 823.191 2157.47C805.195 2145.84 794.743 2128.66 787.458 2098.74C785.288 2089.82 784.711 2069.44 783.792 1969.31C782.743 1854.75 782.578 1850.02 779.225 1837.98C762.228 1776.9 718.203 1732.64 658.436 1716.53C643.243 1712.43 641.009 1712.28 585.331 1711.66L527.897 1711.02L527.91 1941.92C527.925 2178.24 528.135 2187.06 534.475 2217.43C536.234 2225.85 537.673 2233 537.673 2233.3C537.673 2233.61 460.321 2233.86 365.781 2233.86H193.888V1975.82V1717.79H96.9441H0V2063.79V2409.79L434.619 2409.15C742.927 2408.7 872.552 2407.99 880.643 2406.7C906.994 2402.52 921.067 2397.88 946.63 2384.95C977.252 2369.47 997.823 2355.11 1017.57 2335.45C1049.8 2303.36 1074.65 2254.18 1083.21 2205.57L1086.11 2189.09L1091.93 2188.6L1097.74 2188.1L1098.57 2221.15C1099.29 2249.89 1099.96 2256.33 1103.67 2270.49C1120.07 2333.12 1171.07 2380.37 1235.43 2392.57C1245.34 2394.44 1260.89 2395.03 1301.11 2395.03H1353.8L1354.42 2204.15C1355.09 1997.78 1354.79 2004.88 1363.84 1980.71C1378.61 1941.28 1412.33 1927.39 1493.26 1927.39C1570.39 1927.39 1607.72 1941.45 1625.14 1977.05C1638.95 2005.29 1639.09 2007.63 1639.09 2215.5V2395.03H1767.03H1894.98L1894.41 2154.49C1893.78 1891.88 1894.46 1910.92 1884.39 1873.13C1876.93 1845.15 1862.14 1813.92 1845.51 1791.05C1835.17 1776.84 1811.94 1755 1795.39 1743.94C1757.68 1718.74 1719.51 1705.55 1668.07 1699.97C1646.6 1697.64 1593.5 1698.11 1571.07 1700.82ZM2380.4 1793.57C2383.03 1799.58 2384.68 1800.79 2398.96 1807.24C2407.59 1811.13 2414.64 1814.82 2414.64 1815.43C2414.64 1816.03 2407.49 1819.84 2398.76 1823.88L2382.87 1831.22L2375.66 1847.75L2368.46 1864.28L2361 1847.73L2353.54 1831.18L2337.66 1823.8C2328.92 1819.74 2321.77 1815.99 2321.77 1815.47C2321.77 1814.95 2328.92 1811.22 2337.66 1807.17L2353.54 1799.82L2360.87 1783.14L2368.21 1766.45L2372.86 1776.72C2375.41 1782.36 2378.81 1789.95 2380.4 1793.57ZM2258.99 1839.08C2266.71 1856.09 2273.92 1870.84 2275 1871.85C2276.08 1872.86 2291.39 1880.18 2309.02 1888.11C2326.66 1896.04 2340.78 1902.83 2340.41 1903.21C2340.04 1903.58 2324.93 1910.6 2306.84 1918.81L2273.95 1933.74L2259 1966.61C2250.79 1984.68 2243.76 1999.78 2243.39 2000.15C2243.02 2000.52 2236.22 1986.41 2228.28 1968.79C2220.34 1951.17 2213.02 1935.87 2212 1934.79C2210.99 1933.71 2196.23 1926.51 2179.21 1918.8C2162.18 1911.08 2147.69 1904.23 2147.02 1903.58C2146.34 1902.92 2160.73 1895.6 2179 1887.31L2212.21 1872.24L2227.34 1838.92C2235.67 1820.59 2243.03 1806.17 2243.71 1806.87C2244.4 1807.57 2251.27 1822.06 2258.99 1839.08ZM2400.12 1982.83L2416.67 1990.54L2400.16 1998.14L2383.64 2005.74L2376 2022.3L2368.36 2038.87L2360.61 2022.32L2352.87 2005.78L2336.36 1998.18L2319.85 1990.59L2336.4 1982.86L2352.94 1975.13L2360.57 1958.65L2368.2 1942.18L2375.89 1958.65L2383.57 1975.12L2400.12 1982.83Z" fill="#BD14DF"/>
<path d="M9.75162 2482.87C9.75162 2476.48 11.4207 2470.86 14.759 2465.99C18.0972 2461.03 22.6754 2457.17 28.4934 2454.4C34.4069 2451.54 41.131 2450.11 48.6659 2450.11C56.2961 2450.11 62.8772 2451.45 68.4092 2454.12C73.9411 2456.79 78.1854 2460.56 81.1421 2465.42C84.1942 2470.28 85.7203 2476.05 85.7203 2482.73H62.6865C62.6865 2479.01 61.3989 2476.1 58.8237 2474C56.2485 2471.81 52.7672 2470.71 48.3798 2470.71C43.7062 2470.71 39.9388 2471.71 37.0774 2473.72C34.3115 2475.72 32.9285 2478.49 32.9285 2482.02C32.9285 2485.26 33.7869 2487.74 35.5037 2489.46C37.2205 2491.17 39.9388 2492.41 43.6585 2493.17L59.539 2496.47C68.9814 2498.37 75.9917 2501.71 80.5699 2506.48C85.148 2511.15 87.4371 2517.69 87.4371 2526.08C87.4371 2532.85 85.768 2538.81 82.4297 2543.96C79.0915 2549.02 74.3703 2552.93 68.2661 2555.7C62.2573 2558.46 55.1993 2559.84 47.0922 2559.84C39.2711 2559.84 32.4039 2558.51 26.4905 2555.84C20.6724 2553.17 16.1419 2549.4 12.8991 2544.54C9.75162 2539.58 8.17788 2533.81 8.17788 2527.22H31.2117C31.2117 2531.04 32.5947 2534 35.3606 2536.1C38.1266 2538.19 42.0848 2539.24 47.2352 2539.24C52.481 2539.24 56.63 2538.29 59.6821 2536.38C62.7342 2534.38 64.2602 2531.71 64.2602 2528.37C64.2602 2525.41 63.4972 2523.12 61.9711 2521.5C60.5405 2519.88 58.0606 2518.74 54.5316 2518.07L38.3651 2514.78C28.9226 2512.87 21.7693 2509.25 16.905 2503.9C12.1361 2498.56 9.75162 2491.55 9.75162 2482.87ZM241.426 2463.27V2557.98H218.249V2463.27H241.426ZM188.205 2473.57V2452.11H271.47V2473.57H188.205ZM379.6 2518.21V2452.11H402.777V2516.64C402.777 2523.31 404.541 2528.42 408.07 2531.95C411.599 2535.48 416.606 2537.24 423.092 2537.24C429.673 2537.24 434.728 2535.43 438.257 2531.8C441.882 2528.18 443.694 2523.12 443.694 2516.64V2452.11H466.871V2518.21C466.871 2526.6 465.058 2533.9 461.434 2540.1C457.905 2546.3 452.85 2551.12 446.269 2554.55C439.688 2557.98 431.962 2559.7 423.092 2559.7C414.317 2559.7 406.639 2558.03 400.058 2554.69C393.573 2551.26 388.518 2546.44 384.893 2540.24C381.364 2533.95 379.6 2526.6 379.6 2518.21ZM624.621 2557.98H583.132V2452.11H623.191C633.587 2452.11 642.696 2454.36 650.517 2458.84C658.433 2463.32 664.633 2469.57 669.115 2477.58C673.598 2485.59 675.839 2494.84 675.839 2505.34C675.839 2515.64 673.646 2524.75 669.258 2532.66C664.966 2540.58 658.958 2546.78 651.232 2551.26C643.602 2555.74 634.731 2557.98 624.621 2557.98ZM606.309 2462.7V2547.68L595.293 2536.52H622.332C628.437 2536.52 633.635 2535.28 637.927 2532.8C642.314 2530.32 645.652 2526.75 647.941 2522.07C650.23 2517.4 651.375 2511.82 651.375 2505.34C651.375 2498.66 650.135 2492.98 647.655 2488.31C645.271 2483.54 641.789 2479.92 637.211 2477.44C632.729 2474.86 627.292 2473.57 620.902 2473.57H595.293L606.309 2462.7ZM810.104 2452.11V2557.98H786.927V2452.11H810.104ZM1025.01 2504.91C1025.01 2515.68 1022.82 2525.22 1018.43 2533.52C1014.04 2541.72 1007.94 2548.16 1000.12 2552.83C992.295 2557.41 983.234 2559.7 972.933 2559.7C962.728 2559.7 953.715 2557.41 945.894 2552.83C938.168 2548.16 932.112 2541.72 927.724 2533.52C923.432 2525.32 921.286 2515.83 921.286 2505.05C921.286 2494.27 923.48 2484.78 927.867 2476.58C932.255 2468.28 938.311 2461.84 946.037 2457.27C953.858 2452.59 962.871 2450.25 973.076 2450.25C983.377 2450.25 992.39 2452.59 1000.12 2457.27C1007.94 2461.84 1014.04 2468.23 1018.43 2476.44C1022.82 2484.64 1025.01 2494.13 1025.01 2504.91ZM1000.55 2504.91C1000.55 2498.13 999.448 2492.36 997.255 2487.6C995.061 2482.73 991.914 2479.01 987.812 2476.44C983.806 2473.86 978.942 2472.57 973.219 2472.57C967.497 2472.57 962.585 2473.86 958.484 2476.44C954.382 2479.01 951.235 2482.73 949.041 2487.6C946.847 2492.36 945.751 2498.13 945.751 2504.91C945.751 2511.68 946.847 2517.5 949.041 2522.36C951.235 2527.22 954.382 2530.94 958.484 2533.52C962.585 2536.1 967.497 2537.38 973.219 2537.38C978.942 2537.38 983.806 2536.1 987.812 2533.52C991.914 2530.85 995.061 2527.08 997.255 2522.22C999.448 2517.35 1000.55 2511.58 1000.55 2504.91ZM1310.43 2557.98H1268.94V2452.11H1309C1319.39 2452.11 1328.5 2454.36 1336.32 2458.84C1344.24 2463.32 1350.44 2469.57 1354.92 2477.58C1359.4 2485.59 1361.64 2494.84 1361.64 2505.34C1361.64 2515.64 1359.45 2524.75 1355.06 2532.66C1350.77 2540.58 1344.76 2546.78 1337.04 2551.26C1329.41 2555.74 1320.54 2557.98 1310.43 2557.98ZM1292.11 2462.7V2547.68L1281.1 2536.52H1308.14C1314.24 2536.52 1319.44 2535.28 1323.73 2532.8C1328.12 2530.32 1331.46 2526.75 1333.75 2522.07C1336.03 2517.4 1337.18 2511.82 1337.18 2505.34C1337.18 2498.66 1335.94 2492.98 1333.46 2488.31C1331.08 2483.54 1327.59 2479.92 1323.02 2477.44C1318.53 2474.86 1313.1 2473.57 1306.71 2473.57H1281.1L1292.11 2462.7ZM1539.97 2557.98H1472.73V2452.11H1539.97V2473.57H1489.47L1495.91 2467.57V2494.32H1534.97V2514.64H1495.91V2542.53L1489.47 2536.52H1539.97V2557.98ZM1828.2 2557.98H1786.71V2452.11H1826.77C1837.17 2452.11 1846.28 2454.36 1854.1 2458.84C1862.01 2463.32 1868.21 2469.57 1872.7 2477.58C1877.18 2485.59 1879.42 2494.84 1879.42 2505.34C1879.42 2515.64 1877.23 2524.75 1872.84 2532.66C1868.55 2540.58 1862.54 2546.78 1854.81 2551.26C1847.18 2555.74 1838.31 2557.98 1828.2 2557.98ZM1809.89 2462.7V2547.68L1798.87 2536.52H1825.91C1832.02 2536.52 1837.22 2535.28 1841.51 2532.8C1845.89 2530.32 1849.23 2526.75 1851.52 2522.07C1853.81 2517.4 1854.96 2511.82 1854.96 2505.34C1854.96 2498.66 1853.72 2492.98 1851.24 2488.31C1848.85 2483.54 1845.37 2479.92 1840.79 2477.44C1836.31 2474.86 1830.87 2473.57 1824.48 2473.57H1798.87L1809.89 2462.7ZM1999.23 2557.98H1975.05L2012.82 2452.11H2035.43L2073.05 2557.98H2048.44L2041 2535.67H2006.81L1999.23 2557.98ZM2021.12 2493.6L2013.54 2516.21H2034.42L2026.84 2493.6C2026.27 2491.79 2025.7 2489.93 2025.12 2488.02C2024.55 2486.12 2024.17 2484.54 2023.98 2483.3C2023.79 2484.54 2023.41 2486.12 2022.84 2488.02C2022.36 2489.84 2021.79 2491.7 2021.12 2493.6ZM2203.22 2557.98H2180.33V2452.11H2203.22L2255.01 2530.23H2247.86V2452.11H2270.75V2557.98H2247.86L2196.07 2480.01H2203.22V2557.98ZM2433.54 2559.7C2422.95 2559.7 2413.8 2557.51 2406.07 2553.12C2398.35 2548.64 2392.38 2542.34 2388.19 2534.24C2383.99 2526.03 2381.89 2516.35 2381.89 2505.19C2381.89 2494.13 2384.09 2484.5 2388.47 2476.29C2392.86 2468.09 2399.01 2461.75 2406.93 2457.27C2414.85 2452.69 2424.05 2450.4 2434.54 2450.4C2443.41 2450.4 2451.28 2452.02 2458.15 2455.26C2465.11 2458.41 2470.79 2462.89 2475.17 2468.71C2479.56 2474.53 2482.28 2481.4 2483.33 2489.31H2458.86C2457.34 2483.97 2454.38 2479.87 2449.99 2477.01C2445.7 2474.15 2440.36 2472.72 2433.97 2472.72C2428.25 2472.72 2423.29 2474 2419.09 2476.58C2414.99 2479.15 2411.84 2482.87 2409.65 2487.74C2407.45 2492.51 2406.36 2498.28 2406.36 2505.05C2406.36 2511.63 2407.45 2517.35 2409.65 2522.22C2411.94 2527.08 2415.13 2530.85 2419.23 2533.52C2423.43 2536.1 2428.34 2537.38 2433.97 2537.38C2440.45 2537.38 2445.94 2535.9 2450.42 2532.95C2455 2529.9 2458 2525.75 2459.44 2520.5H2483.47C2482.23 2528.32 2479.32 2535.19 2474.74 2541.1C2470.26 2547.02 2464.49 2551.59 2457.43 2554.84C2450.37 2558.08 2442.41 2559.7 2433.54 2559.7ZM2421.81 2588.46V2579.3C2423.62 2580.06 2425.29 2580.68 2426.82 2581.16C2428.44 2581.73 2430.25 2582.02 2432.25 2582.02C2435.02 2582.02 2437.02 2581.45 2438.26 2580.3C2439.6 2579.25 2440.26 2577.87 2440.26 2576.15C2440.26 2574.53 2439.69 2573.29 2438.55 2572.43C2437.5 2571.58 2435.97 2571.15 2433.97 2571.15C2432.54 2571.15 2431.25 2571.24 2430.11 2571.43C2429.06 2571.62 2428.01 2571.91 2426.96 2572.29L2424.96 2566.71L2432.11 2551.83L2438.26 2551.98V2556.7L2432.97 2566.85L2432.11 2565.85C2433.73 2564.61 2436.07 2563.99 2439.12 2563.99C2441.03 2563.99 2442.93 2564.37 2444.84 2565.14C2446.75 2566 2448.32 2567.28 2449.56 2569C2450.9 2570.81 2451.57 2573.2 2451.57 2576.15C2451.57 2581.02 2449.8 2584.74 2446.27 2587.31C2442.74 2589.89 2438.45 2591.18 2433.4 2591.18C2430.92 2591.18 2428.77 2590.89 2426.96 2590.32C2425.15 2589.84 2423.43 2589.22 2421.81 2588.46ZM2603.35 2557.98H2579.17L2616.94 2452.11H2639.54L2677.17 2557.98H2652.56L2645.12 2535.67H2610.93L2603.35 2557.98ZM2625.24 2493.6L2617.66 2516.21H2638.54L2630.96 2493.6C2630.39 2491.79 2629.82 2489.93 2629.24 2488.02C2628.67 2486.12 2628.29 2484.54 2628.1 2483.3C2627.91 2484.54 2627.53 2486.12 2626.95 2488.02C2626.48 2489.84 2625.91 2491.7 2625.24 2493.6Z" fill="#BD14DF"/>
</svg>
