<svg width="2457" height="5546" viewBox="0 0 2457 5546" fill="none" xmlns="http://www.w3.org/2000/svg">
<path fill-rule="evenodd" clip-rule="evenodd" d="M1449.86 4.23725C1436.87 17.225 1442.05 27.5567 1483.8 71.9883C1506.44 96.0872 1523.51 117.255 1521.74 119.026C1519.97 120.797 1487.5 114.344 1449.59 104.685C1376.53 86.0797 1371.79 86.7095 1364.55 116.021C1359.26 137.445 1369.69 143.175 1428.92 151.38C1485.1 159.162 1508.69 172.511 1534.85 211.331C1561.17 250.388 1553.97 258.201 1511.48 236.683C1446.27 203.65 1417.59 229.806 1478.48 266.78C1498.57 278.976 1520.47 295.107 1527.15 302.632C1553 331.713 1599.72 363.749 1631.19 373.969C1682.67 390.691 1692.13 402.569 1692.13 450.505C1692.13 472.677 1685.13 568.287 1676.57 662.974C1668.01 757.661 1658.64 875.817 1655.75 925.542C1650.5 1015.86 1650.46 1016.03 1617.77 1092.92C1599.77 1135.25 1565.32 1225.04 1541.21 1292.44C1517.09 1359.85 1490.33 1429.03 1481.75 1446.18C1464.66 1480.28 1375.53 1570.74 1340.34 1589.68C1320.31 1600.46 1318.11 1600.52 1303.11 1590.7C1283.24 1577.68 1271.56 1537.32 1276.74 1499.52C1278.95 1483.45 1291.18 1454.11 1305.69 1430.1C1328.79 1391.89 1332.85 1388.25 1355.77 1385.18C1410.31 1377.86 1436.33 1343.46 1436.36 1278.65C1436.39 1240.41 1438.3 1233.65 1454.29 1215.45C1475.92 1190.82 1483.23 1151.45 1473.88 1109.79C1464.5 1067.95 1452.55 1047.56 1423.91 1024.55C1410.2 1013.54 1390.72 989.895 1380.62 972C1354.32 925.417 1321.77 910.378 1256.61 914.693C1198.54 918.546 1131.86 938.873 1106.03 960.596C1095.55 969.406 1076.92 993.885 1064.62 1014.99C1039.1 1058.79 1019.9 1081.42 1008.25 1081.42C995.59 1081.42 987.282 1102.88 987.275 1135.57C987.275 1152.08 981.568 1180.61 974.588 1198.96C957.965 1242.68 956.717 1275.02 971.32 1283.7C1008.13 1305.57 1032.15 1327.45 1043.25 1349.2C1069 1399.66 1052.55 1526.59 1015.79 1561.12L1000.39 1575.58L975.667 1522.1C962.069 1492.68 936.314 1447.66 918.425 1422.05L885.902 1375.49L855.231 1226.9C801.238 965.31 805.025 997.19 818.517 917.748C825.072 879.171 833.543 798.501 837.348 738.488C844.39 627.246 864.089 470.632 875.516 435.073C882.92 412.016 887.679 409.721 944.903 401.609C976.029 397.195 1007.92 385.865 1059.39 360.944C1133.73 324.954 1144.27 313.32 1113.59 301.149C1099.9 295.711 1089.22 296.809 1060.57 306.617L1024.71 318.894V301.323C1024.71 273.165 1056.48 242.588 1101.4 227.524C1150.74 210.976 1157.46 206.511 1154.54 192.164C1152.48 182.051 1147.25 180.704 1116.5 182.35C1096.89 183.404 1080.85 182.593 1080.85 180.542C1080.85 178.497 1092.07 166.151 1105.8 153.101C1119.52 140.051 1130.75 126.047 1130.75 121.975C1130.75 105.795 1110.07 108.109 1079.02 127.768C1061.15 139.078 1010.54 169.281 966.548 194.883C841.415 267.709 796.691 315.427 781.384 392.437C777.299 413.013 755.941 492.38 733.928 568.811C683.809 742.802 656.688 863.172 656.688 911.588C656.688 956.088 689.124 1238.99 706.901 1349.53C721.559 1440.7 735.451 1501.37 765.697 1606.39C797.621 1717.24 796.404 1735.02 750.795 1824.43C704.949 1914.32 699.696 1944.89 717.492 2018.46C748.693 2147.42 797.371 2305.35 840.86 2418.67C879.595 2519.61 886.794 2543.67 880.094 2549.8C875.578 2553.92 841.01 2571.56 803.272 2588.99C718.802 2628 542.646 2710.84 359.048 2797.89C282.831 2834.02 196.714 2877.93 167.672 2895.46C138.636 2912.99 94.3299 2936.73 69.2236 2948.21C1.14626 2979.34 -14.0984 3001.95 12.0497 3033.02C24.3627 3047.64 27.1072 3056 23.8886 3069.04C10.6586 3122.61 13.5279 3131.67 45.8076 3138.26C62.462 3141.67 67.5581 3146.46 71.7435 3162.59C76.4716 3180.83 79.1413 3182.66 101.023 3182.66C123.603 3182.66 125.356 3184.02 129.198 3204.47C132.922 3224.32 135.037 3226.14 152.726 3224.74C169.892 3223.37 172.805 3225.56 177.571 3243.42C180.534 3254.54 192.809 3273.48 204.835 3285.51C237.015 3317.67 263.45 3316.1 311.012 3279.18C342.032 3255.1 392.9 3232.53 416.116 3232.55C419.777 3232.55 440.574 3240.97 462.324 3251.26C516.342 3276.8 526.615 3275.64 565.058 3239.64C617.079 3190.92 632.667 3186.78 694.538 3205.24C740.54 3218.97 786.468 3217.72 822.584 3201.74C838.914 3194.53 854.389 3190.79 856.978 3193.44C859.566 3196.08 869.098 3237.53 878.155 3285.54C904.421 3424.74 934.455 3536.27 990.637 3703.3C1057.34 3901.57 1061.93 3921.88 1062.04 4019.3C1062.13 4094.5 1060.95 4101.97 1037.87 4172.06C998.253 4292.44 986.651 4365.56 974.744 4569.98C962.063 4787.76 955.177 4831.55 924.02 4892.6C900.722 4938.25 873.327 5025.85 867.937 5071.91C839.045 5318.77 845.151 5491.13 883.743 5518.15C897.603 5527.86 990.475 5530.8 1004.37 5521.98C1014.86 5515.32 1039.89 5452.4 1055.91 5392.4C1075.97 5317.36 1078.4 5243.4 1063.27 5168.56C1056.34 5134.26 1048.85 5094.63 1046.63 5080.47C1041.19 5045.85 1058.49 4946.55 1083.49 4868.95C1103.86 4805.74 1174.33 4642.02 1181.27 4641.8C1186.66 4641.64 1193.13 4743.79 1193.07 4828.14C1193.04 4867.91 1189.03 4931.31 1184.15 4969.03C1163.25 5130.63 1165.94 5247.73 1193.47 5374.32C1208.91 5445.34 1235.1 5524.5 1247.13 5536.53C1258.52 5547.91 1305.18 5548.76 1320.11 5537.84C1328.72 5531.55 1332.16 5514.51 1336.75 5455.23C1339.92 5414.16 1342.66 5356.7 1342.81 5327.55C1343.21 5254.65 1354.61 5231.94 1424.27 5165.43C1484.2 5108.2 1494.92 5088.33 1486.36 5050.38C1478.76 5016.71 1465.51 5000.53 1425.73 4976.33C1371.96 4943.63 1364.55 4927.48 1365.17 4844.33C1365.75 4765.68 1377.19 4687.8 1412.76 4520.1C1452.04 4334.97 1448.25 4271.64 1387.98 4105.46C1349.69 3999.9 1343.34 3974.49 1338.77 3908.6C1334.1 3841.17 1330.62 3853.27 1427.39 3600.42C1526.82 3340.66 1560.87 3237.82 1582.97 3130.62L1586.63 3112.87L1628.46 3117.05C1659.96 3120.2 1674.73 3118.93 1688.23 3111.91C1707.22 3102.04 1715.17 3103.37 1745.15 3121.45C1755.44 3127.66 1770.69 3132.74 1779.05 3132.76C1820.31 3132.82 1896.89 3073.82 1929.5 3016.84C1958.07 2966.92 1967.48 2962.33 2016.01 2974.64C2063.68 2986.74 2092.16 2980.52 2126.29 2950.57C2142.83 2936.04 2157.43 2929.82 2183.11 2926.34C2248.63 2917.45 2272.23 2897.32 2272.23 2850.36C2272.23 2836.99 2276.91 2824.97 2284.92 2817.71C2291.91 2811.39 2296.13 2802.34 2294.3 2797.59C2292.48 2792.84 2294.06 2783.2 2297.82 2776.19C2303.46 2765.66 2308.9 2764 2328.96 2766.69C2352.02 2769.78 2353.53 2768.94 2358.33 2750.28C2362.58 2733.78 2367.35 2729.79 2387.99 2725.5C2435.26 2715.65 2443.8 2711.49 2452.05 2694.28C2459.21 2679.33 2458.82 2672.64 2449.18 2645.83C2440.13 2620.68 2439.44 2612.4 2445.55 2602.61C2460.2 2579.16 2454.29 2554.05 2431.29 2542.02C2411.78 2531.81 2187.13 2472.77 2128.48 2462.42C1956.59 2432.12 1610.77 2418.42 1480.84 2436.75C1395.82 2448.76 1384.8 2445.46 1337.79 2394.05C1290.98 2342.85 1283.76 2303.91 1305.41 2219.32C1317.43 2172.33 1333.18 2139.53 1395.25 2032.28C1411.13 2004.84 1433.01 1958.87 1443.87 1930.12C1459.98 1887.49 1472.63 1867.35 1512.38 1821C1573 1750.33 1599.27 1701.09 1620.01 1619.25C1628.91 1584.12 1651.66 1506.96 1670.57 1447.78C1689.49 1388.6 1717.55 1293.19 1732.94 1235.77C1748.33 1178.33 1772.4 1095.56 1786.43 1051.83L1811.94 972.305L1808.53 856.955C1803.45 685.464 1770.22 342.207 1756.69 321.488C1750.82 312.496 1723.25 279.893 1695.43 249.029C1667.6 218.165 1623.54 166.257 1597.53 133.679C1557.79 83.9286 1489.83 16.4706 1463.9 1.04485C1460.16 -1.17486 1453.84 0.259227 1449.86 4.23725Z" fill="#FFD400"/>
</svg>
