<svg width="3515" height="3707" viewBox="0 0 3515 3707" fill="none" xmlns="http://www.w3.org/2000/svg">
<path d="M1544.75 0C2632.39 0.000155235 3514.1 829.773 3514.1 1853.35C3514.1 2876.92 2632.39 3706.7 1544.75 3706.7C918.602 3706.7 360.711 3431.7 0 3003.03C300.878 3252.09 694.709 3403 1125.77 3403C2070.79 3403 2836.87 2677.72 2836.87 1783.04C2836.87 888.366 2070.79 163.089 1125.77 163.089C917.422 163.089 717.769 198.343 533.105 262.896C828.781 95.9705 1174.85 0 1544.75 0Z" fill="#BD14DF"/>
<path d="M646.526 540.461L616.708 605.54L551.866 635.121L616.708 664.939L646.526 729.781L676.107 664.939L741.186 635.121L676.107 605.54M409.875 611.456L350.713 741.614L220.555 800.777L350.713 859.939L409.875 990.097L469.038 859.939L599.196 800.777L469.038 741.614M646.526 871.772L616.708 936.614L551.866 966.432L616.708 996.013L646.526 1061.09L676.107 996.013L741.186 966.432L676.107 936.614" fill="#BD14DF"/>
<path fill-rule="evenodd" clip-rule="evenodd" d="M1485.34 543.114C1478.62 549.832 1481.3 555.177 1502.89 578.161C1514.6 590.627 1523.42 601.578 1522.51 602.494C1521.59 603.41 1504.8 600.071 1485.2 595.075C1447.42 585.45 1444.97 585.776 1441.23 600.939C1438.49 612.021 1443.89 614.986 1474.51 619.23C1503.56 623.255 1515.76 630.161 1529.29 650.242C1542.9 670.446 1539.17 674.488 1517.21 663.357C1483.48 646.269 1468.65 659.799 1500.14 678.926C1510.53 685.235 1521.85 693.579 1525.31 697.472C1538.67 712.515 1562.83 729.088 1579.1 734.374C1605.72 743.025 1610.62 749.169 1610.62 773.966C1610.62 785.435 1607 834.894 1602.57 883.875C1598.14 932.856 1593.3 993.977 1591.8 1019.7C1589.09 1066.42 1589.07 1066.51 1572.17 1106.28C1562.86 1128.18 1545.04 1174.63 1532.58 1209.5C1520.11 1244.37 1506.27 1280.15 1501.83 1289.02C1493 1306.66 1446.91 1353.46 1428.71 1363.26C1418.35 1368.83 1417.21 1368.86 1409.46 1363.78C1399.18 1357.05 1393.14 1336.17 1395.82 1316.62C1396.96 1308.3 1403.29 1293.12 1410.79 1280.71C1422.74 1260.94 1424.84 1259.06 1436.69 1257.47C1464.89 1253.68 1478.35 1235.89 1478.36 1202.36C1478.38 1182.58 1479.37 1179.08 1487.63 1169.67C1498.82 1156.92 1502.59 1136.56 1497.76 1115.01C1492.91 1093.37 1486.73 1082.82 1471.92 1070.92C1464.84 1065.22 1454.76 1052.99 1449.54 1043.73C1435.94 1019.64 1419.11 1011.86 1385.41 1014.09C1355.38 1016.08 1320.9 1026.6 1307.55 1037.83C1302.13 1042.39 1292.5 1055.05 1286.14 1065.97C1272.94 1088.63 1263.01 1100.34 1256.99 1100.34C1250.44 1100.34 1246.15 1111.43 1246.14 1128.34C1246.14 1136.89 1243.19 1151.64 1239.58 1161.14C1230.99 1183.75 1230.34 1200.48 1237.89 1204.97C1256.93 1216.29 1269.35 1227.61 1275.09 1238.86C1288.4 1264.96 1279.9 1330.62 1260.89 1348.48L1252.92 1355.96L1240.14 1328.29C1233.11 1313.08 1219.79 1289.79 1210.54 1276.54L1193.72 1252.45L1177.86 1175.59C1149.95 1040.27 1151.9 1056.76 1158.88 1015.67C1162.27 995.713 1166.65 953.982 1168.62 922.938C1172.26 865.393 1182.44 784.377 1188.35 765.983C1192.18 754.055 1194.64 752.868 1224.23 748.672C1240.33 746.389 1256.82 740.528 1283.44 727.636C1321.87 709.019 1327.32 703 1311.46 696.704C1304.38 693.892 1298.86 694.46 1284.04 699.533L1265.5 705.884V696.795C1265.5 682.229 1281.93 666.411 1305.16 658.619C1330.67 650.059 1334.14 647.749 1332.63 640.328C1331.57 635.096 1328.86 634.399 1312.96 635.251C1302.82 635.796 1294.53 635.377 1294.53 634.315C1294.53 633.257 1300.33 626.871 1307.43 620.12C1314.52 613.37 1320.33 606.125 1320.33 604.019C1320.33 595.649 1309.64 596.846 1293.59 607.016C1284.34 612.866 1258.17 628.49 1235.42 641.734C1170.72 679.407 1147.59 704.091 1139.68 743.928C1137.57 754.571 1126.52 795.628 1115.14 835.165C1089.22 925.17 1075.2 987.436 1075.2 1012.48C1075.2 1035.5 1091.97 1181.84 1101.16 1239.03C1108.74 1286.19 1115.93 1317.57 1131.57 1371.9C1148.07 1429.24 1147.45 1438.44 1123.86 1484.69C1100.15 1531.19 1097.44 1547 1106.64 1585.06C1122.77 1651.77 1147.95 1733.47 1170.43 1792.08C1190.46 1844.3 1194.18 1856.75 1190.72 1859.92C1188.39 1862.05 1170.51 1871.18 1151 1880.19C1107.32 1900.37 1016.23 1943.23 921.293 1988.25C881.882 2006.95 837.352 2029.66 822.334 2038.73C807.32 2047.8 784.41 2060.08 771.428 2066.02C736.226 2082.12 728.343 2093.82 741.864 2109.89C748.231 2117.45 749.65 2121.77 747.985 2128.52C741.144 2156.23 742.628 2160.92 759.319 2164.33C767.931 2166.09 770.566 2168.57 772.731 2176.91C775.176 2186.35 776.556 2187.3 787.871 2187.3C799.547 2187.3 800.453 2188 802.44 2198.58C804.365 2208.85 805.459 2209.79 814.606 2209.06C823.482 2208.36 824.989 2209.49 827.453 2218.73C828.985 2224.48 835.333 2234.28 841.551 2240.5C858.191 2257.14 871.86 2256.32 896.454 2237.22C912.494 2224.77 938.797 2213.09 950.802 2213.1C952.695 2213.1 963.449 2217.46 974.696 2222.78C1002.63 2235.99 1007.94 2235.39 1027.82 2216.77C1054.72 2191.57 1062.78 2189.43 1094.77 2198.98C1118.56 2206.08 1142.31 2205.43 1160.98 2197.17C1169.43 2193.44 1177.43 2191.5 1178.77 2192.87C1180.11 2194.24 1185.03 2215.68 1189.72 2240.52C1203.3 2312.52 1218.83 2370.22 1247.88 2456.62C1282.37 2559.18 1284.74 2569.69 1284.8 2620.09C1284.85 2658.99 1284.24 2662.85 1272.31 2699.11C1251.82 2761.38 1245.82 2799.21 1239.66 2904.95C1233.11 3017.61 1229.55 3040.26 1213.43 3071.84C1201.39 3095.46 1187.22 3140.77 1184.43 3164.6C1169.49 3292.29 1172.65 3381.46 1192.61 3395.43C1199.77 3400.45 1247.8 3401.98 1254.98 3397.41C1260.41 3393.97 1273.35 3361.42 1281.64 3330.38C1292.01 3291.56 1293.26 3253.3 1285.44 3214.59C1281.86 3196.85 1277.98 3176.35 1276.83 3169.02C1274.02 3151.11 1282.97 3099.75 1295.89 3059.6C1306.43 3026.91 1342.87 2942.22 1346.46 2942.1C1349.24 2942.02 1352.59 2994.86 1352.56 3038.49C1352.54 3059.07 1350.47 3091.86 1347.95 3111.38C1337.14 3194.97 1338.53 3255.55 1352.76 3321.03C1360.75 3357.77 1374.29 3398.72 1380.51 3404.94C1386.4 3410.83 1410.53 3411.27 1418.25 3405.62C1422.7 3402.36 1424.48 3393.55 1426.85 3362.88C1428.49 3341.64 1429.91 3311.92 1429.99 3296.84C1430.19 3259.13 1436.09 3247.38 1472.11 3212.97C1503.1 3183.37 1508.64 3173.09 1504.21 3153.46C1500.29 3136.04 1493.43 3127.67 1472.86 3115.15C1445.06 3098.24 1441.23 3089.88 1441.55 3046.87C1441.85 3006.18 1447.76 2965.89 1466.16 2879.15C1486.47 2783.38 1484.51 2750.62 1453.34 2664.66C1433.55 2610.05 1430.26 2596.9 1427.9 2562.82C1425.48 2527.94 1423.68 2534.2 1473.72 2403.4C1525.13 2269.03 1542.74 2215.83 1554.17 2160.37L1556.07 2151.19L1577.7 2153.36C1593.98 2154.98 1601.62 2154.33 1608.6 2150.7C1618.42 2145.59 1622.53 2146.28 1638.03 2155.63C1643.36 2158.84 1651.24 2161.47 1655.56 2161.48C1676.9 2161.51 1716.49 2130.99 1733.36 2101.52C1748.13 2075.69 1753 2073.32 1778.09 2079.69C1802.74 2085.95 1817.47 2082.73 1835.12 2067.23C1843.67 2059.72 1851.22 2056.5 1864.5 2054.7C1898.38 2050.1 1910.58 2039.69 1910.58 2015.4C1910.58 2008.48 1913 2002.26 1917.14 1998.51C1920.76 1995.24 1922.94 1990.56 1921.99 1988.1C1921.05 1985.64 1921.87 1980.66 1923.81 1977.03C1926.73 1971.59 1929.54 1970.73 1939.92 1972.12C1951.84 1973.72 1952.62 1973.28 1955.1 1963.63C1957.3 1955.09 1959.77 1953.03 1970.44 1950.81C1994.88 1945.71 1999.29 1943.56 2003.56 1934.66C2007.27 1926.93 2007.06 1923.47 2002.08 1909.6C1997.4 1896.59 1997.04 1892.3 2000.2 1887.24C2007.78 1875.11 2004.72 1862.12 1992.83 1855.9C1982.74 1850.62 1866.58 1820.07 1836.25 1814.72C1747.36 1799.05 1568.54 1791.96 1501.36 1801.44C1457.4 1807.65 1451.7 1805.95 1427.39 1779.35C1403.18 1752.86 1399.45 1732.72 1410.65 1688.97C1416.86 1664.66 1425.01 1647.69 1457.1 1592.21C1465.32 1578.02 1476.63 1554.24 1482.25 1539.36C1490.57 1517.31 1497.12 1506.89 1517.67 1482.92C1549.02 1446.36 1562.6 1420.89 1573.32 1378.55C1577.92 1360.38 1589.69 1320.47 1599.47 1289.85C1609.25 1259.24 1623.76 1209.88 1631.72 1180.18C1639.68 1150.47 1652.12 1107.65 1659.38 1085.03L1672.57 1043.89L1670.81 984.22C1668.18 895.509 1651 717.944 1644 707.226C1640.96 702.575 1626.71 685.709 1612.32 669.743C1597.93 653.777 1575.15 626.926 1561.7 610.073C1541.15 584.338 1506.01 549.442 1492.6 541.462C1490.67 540.314 1487.4 541.056 1485.34 543.114Z" fill="#BD14DF"/>
</svg>
